<svg width="920" height="939" xmlns="http://www.w3.org/2000/svg" xml:space="preserve" enable-background="new 0 0 920 939" version="1.1">

 <g>
  <title>Layer 1</title>
  <path id="svg_2" d="m912.06634,453.00861c-0.31536,18.97039 -0.07531,37.47415 -1.08135,55.90991c-1.99811,36.61584 -9.28858,72.28961 -20.79523,107.11059c-16.23157,49.11927 -41.01557,93.53992 -73.31976,133.85035c-5.63288,7.02886 -5.60816,7.0512 0.914,13.57367c26.86517,26.86706 53.79303,53.67175 80.57824,80.61828c22.78968,22.927 17.59449,59.13172 -10.41565,73.581c-15.85101,8.17688 -36.43377,6.19714 -50.00842,-6.3064c-15.42981,-14.21253 -29.96795,-29.39636 -44.82275,-44.22913c-13.91327,-13.89258 -27.79846,-27.81482 -41.54749,-41.86938c-3.23089,-3.30274 -5.70813,-3.3598 -9.29974,-0.43543c-34.08631,27.75336 -71.35993,50.1706 -112.22925,66.50226c-38.95355,15.56604 -79.36224,25.04517 -121.1142,28.77442c-60.13003,5.37091 -119.47665,1.48052 -177.61657,-15.6717c-60.74555,-17.92089 -114.55379,-48.40612 -162.18097,-89.9917c-42.03651,-36.70416 -77.52739,-78.78674 -104.58254,-127.74469c-24.09463,-43.60083 -39.74899,-90.09039 -47.51989,-139.28796c-6.05845,-38.35611 -7.10693,-76.84262 -4.13395,-115.53162c3.0828,-40.11807 11.1585,-79.14248 25.07529,-116.87753c27.02585,-73.27995 72.01214,-133.97218 130.43585,-185.18698c37.80942,-33.1441 79.77701,-59.52549 126.56185,-78.087c37.0841,-14.71283 75.47808,-24.29882 115.22668,-27.71639c20.04309,-1.7233 40.22577,-2.91529 60.3259,-2.68124c64.63931,0.75266 126.61117,13.94383 185.08273,42.11268c56.67065,27.30129 104.7713,65.72844 146.37067,112.65073c31.20215,35.19471 56.56024,74.10017 75.24249,117.29764c16.65186,38.50253 27.29523,78.6257 31.82373,120.32003c1.4007,12.89667 2.03632,25.87647 3.03033,39.31559m-800.61012,-69.99143c-8.69399,38.04947 -12.51477,76.47769 -9.47344,115.51114c2.6019,33.39368 8.65289,66.04346 20.1989,97.5553c25.25114,68.91656 69.38502,123.60168 127.35171,167.57696c62.58798,47.48102 134.21176,68.04975 211.94577,69.17273c14.42566,0.2085 28.93106,-1.24383 43.31594,-2.73651c63.69941,-6.60974 121.02015,-29.46167 171.91748,-68.36218c6.09907,-4.66156 6.10309,-4.69971 0.77747,-10.02789c-23.44434,-23.45563 -46.92737,-46.8725 -70.33642,-70.36329c-7.52454,-7.55084 -15.41047,-14.83337 -22.18793,-23.01959c-20.7699,-25.0874 -8.78113,-63.39099 22.6289,-71.89001c17.60889,-4.76471 33.20734,-0.04389 46.22162,13.01111c29.5304,29.62262 59.13929,59.16711 88.73291,88.72668c4.35614,4.35107 4.70234,4.32996 8.35297,-0.39807c23.21625,-30.06781 41.25818,-62.9516 53.2749,-99.01904c19.45642,-58.39691 22.82507,-118.09891 13.50916,-178.6518c-6.19226,-40.24939 -19.47803,-78.10553 -39.5799,-113.58841c-21.85132,-38.57083 -50.2597,-71.66258 -83.66064,-100.55642c-41.79877,-36.1585 -89.35718,-61.54525 -143.19196,-74.46876c-41.12463,-9.87233 -82.79944,-12.68336 -125.03348,-8.77158c-40.4031,3.74219 -79.08828,13.44207 -115.84045,30.59582c-43.76831,20.4285 -81.31895,49.24974 -114.11057,84.59386c-41.17248,44.37735 -70.04692,95.39209 -84.81294,155.10995z" fill="#253128"/>
  <path id="svg_3" d="m783.14783,133.88481c0.71045,-0.7684 1.25628,-1.28532 1.80206,-1.80223c0.32684,0.1458 0.65363,0.2916 0.98041,0.43738c-0.81726,3.39925 -1.63459,6.79849 -2.45184,10.19774c-3.0976,-2.93257 -2.24488,-5.75658 -0.33063,-8.83289z" fill="#000415"/>
 </g>
</svg>