<?xml version="1.0" encoding="UTF-8" standalone="no"?>
<!-- Uploaded to: SVG Repo, www.svgrepo.com, Generator: SVG Repo Mixer Tools -->
<svg width="800px" height="800px" viewBox="0 0 20 20" version="1.1" xmlns="http://www.w3.org/2000/svg" xmlns:xlink="http://www.w3.org/1999/xlink">
    <g fill="#416450">
        <path d="m10 0c5.5 0 10 4.6 10 10.3 0 4.5-2.9 8.3-6.8 9.7-.5.1-.7-.2-.7-.5s0-1.5 0-2.8c0-1-.3-1.6-.7-1.9 2.2-.3 4.6-1.1 4.6-5.1 0-1.1-.4-2-1.1-2.7.2-.3.5-1.3 0-2.7 0 0-.9-.3-2.8 1-.8-.2-1.7-.3-2.5-.3s-1.7.1-2.5.3c-1.9-1.3-2.8-1-2.8-1-.5 1.4-.2 2.4-.1 2.7-.6.7-1 1.6-1 2.7 0 3.9 2.4 4.8 4.6 5.1-.3.2-.6.7-.7 1.4-.5.2-2 .7-2.9-.9 0 0-.5-1-1.5-1.1 0 0-1 0-.1.7 0 0 .7.3 1.1 1.5 0 0 .6 1.8 3.4 1.2 0 .8 0 1.6 0 1.9s-.2.6-.7.5C2.9 18.6 0 14.8 0 10.3 0 4.6 4.5 0 10 0"></path>
    </g>
</svg>