<?xml version="1.0" encoding="UTF-8" standalone="no"?>
<!-- Uploaded to: SVG Repo, www.svgrepo.com, Generator: SVG Repo Mixer Tools -->
<svg width="800px" height="800px" viewBox="0 0 20 20" version="1.1" xmlns="http://www.w3.org/2000/svg" xmlns:xlink="http://www.w3.org/1999/xlink">
    <g fill="#416450">
        <path d="M5.9.1C4.2.2 2.8.6 1.7 1.7.5 2.9.2 4.3.1 5.9c-.1 1-.3 8.6.4 10.6.5 1.3 1.6 2.4 2.9 2.9.6.2 1.4.4 2.4.5 8.9.4 12.1.2 13.5-3.4.2-.6.4-1.4.5-2.4.4-8.9-.1-10.8-1.6-12.4C17 .5 15.6-.3 5.9.1M6 18c-1 0-1.5-.2-1.8-.3-.9-.3-1.5-1-1.9-1.9-.6-1.5-.4-8.7-.3-9.9.1-1.1.3-2.2 1.1-3 1-1 2.3-1.5 11-1.1 1.1.1 2.2.3 3 1.1 1 1 1.5 2.3 1.1 11 0 1-.2 1.5-.3 1.8C17 18 14.9 18.3 6 18M14 4.8c0 .7.5 1.2 1.2 1.2s1.2-.5 1.2-1.2-.5-1.2-1.2-1.2S14 4.1 14 4.8M4.9 10c0 2.8 2.3 5.1 5.1 5.1s5.1-2.3 5.1-5.1S12.8 4.9 10 4.9 4.9 7.2 4.9 10m1.8 0c0-1.8 1.5-3.3 3.3-3.3s3.3 1.5 3.3 3.3-1.5 3.3-3.3 3.3S6.7 11.8 6.7 10"></path>
    </g>
</svg>