<?xml version="1.0" encoding="UTF-8" standalone="no"?>
<!-- Uploaded to: SVG Repo, www.svgrepo.com, Generator: SVG Repo Mixer Tools -->
<svg width="800px" height="800px" viewBox="0 0 20 20" version="1.1" xmlns="http://www.w3.org/2000/svg" xmlns:xlink="http://www.w3.org/1999/xlink">
    <g fill="#416450">
        <path d="M20 20H16V13c0-1.9-.8-3-2.4-3S11 11.1 11 13v7H7V7h4V8.5s1.3-2.2 4.1-2.2S20 8 20 11.6V20ZM2.4 4.9C1.1 4.9 0 3.8 0 2.5 0 1.1 1.1 0 2.4 0 3.8 0 4.9 1.1 4.9 2.5c0 1.3-1.1 2.4-2.5 2.4ZM0 20H5V7H0V20Z"></path>
    </g>
</svg>